<svg width="47" height="86" viewBox="0 0 47 86" fill="none" xmlns="http://www.w3.org/2000/svg">
<path d="M84.2067 23.4103C80.7385 17.3223 75.8692 12.1276 69.9932 8.24664C64.1172 4.36571 57.3996 1.9077 50.3842 1.07163C43.3689 0.235572 36.2531 1.04496 29.6129 3.43425C22.9728 5.82355 16.9949 9.72559 12.1634 14.8244C7.33183 19.9233 3.78242 26.0756 1.80255 32.7833C-0.177326 39.491 -0.532025 46.5655 0.767174 53.4339C2.06637 60.3023 4.98295 66.7717 9.28075 72.3182C13.5786 77.8646 19.1368 82.3323 25.5054 85.3594L33.8939 68.1011C30.2658 66.3766 27.0992 63.8314 24.6508 60.6716C22.2023 57.5117 20.5408 53.8261 19.8006 49.9132C19.0605 46.0003 19.2625 41.9699 20.3905 38.1486C21.5184 34.3272 23.5405 30.8222 26.293 27.9174C29.0455 25.0126 32.4511 22.7896 36.234 21.4285C40.0169 20.0673 44.0708 19.6062 48.0674 20.0825C52.064 20.5588 55.891 21.9591 59.2386 24.1701C62.5862 26.381 65.3602 29.3405 67.336 32.8088L84.2067 23.4103Z" fill="white"/>
</svg>
