<svg width="121" height="123" viewBox="0 0 121 123" fill="none" xmlns="http://www.w3.org/2000/svg">
<path d="M120.696 32.8419C115.725 24.0178 108.746 16.4883 100.324 10.8631C91.9013 5.23791 82.2727 1.67518 72.2174 0.463359C62.1621 -0.748462 51.9628 0.424689 42.4452 3.88782C32.9276 7.35096 24.3594 13.0067 17.4342 20.3972C10.509 27.7877 5.42148 36.7051 2.58365 46.4275C-0.254168 56.1498 -0.762569 66.4038 1.09962 76.3592C2.9618 86.3146 7.14223 95.6916 13.3024 103.731C19.4626 111.77 27.4294 118.246 36.5577 122.633L48.5813 97.6185C43.3809 95.1189 38.8422 91.4297 35.3328 86.8498C31.8233 82.2698 29.4418 76.9278 28.3809 71.2562C27.32 65.5846 27.6096 59.7429 29.2263 54.2041C30.843 48.6653 33.7414 43.585 37.6866 39.3747C41.6319 35.1643 46.5133 31.9423 51.9354 29.9693C57.3576 27.9964 63.1681 27.328 68.8966 28.0184C74.6251 28.7088 80.1105 30.7385 84.9087 33.9431C89.7068 37.1478 93.6829 41.4373 96.5149 46.4644L120.696 32.8419Z" fill="white"/>
</svg>
