<svg width="31" height="26" viewBox="0 0 31 26" fill="none" xmlns="http://www.w3.org/2000/svg">
<path d="M26.9067 25.4993C28.4263 23.6894 29.4982 21.5472 30.0358 19.246C30.5734 16.9448 30.5616 14.5493 30.0012 12.2535C29.4408 9.95778 28.3477 7.82624 26.8103 6.03152C25.2729 4.2368 23.3345 2.82935 21.152 1.92312C18.9695 1.01689 16.6043 0.637356 14.2478 0.815252C11.8914 0.993148 9.60991 1.72347 7.58819 2.94709C5.56648 4.17071 3.86134 5.85322 2.61082 7.85841C1.3603 9.86359 0.599568 12.1351 0.390208 14.489L6.84065 15.0627C6.95992 13.7217 7.39331 12.4276 8.10573 11.2853C8.81815 10.1429 9.78957 9.18438 10.9413 8.48729C12.0931 7.79019 13.3928 7.37413 14.7353 7.27278C16.0778 7.17144 17.4253 7.38765 18.6686 7.90393C19.912 8.42021 21.0163 9.22204 21.8922 10.2445C22.768 11.2669 23.3908 12.4813 23.71 13.7892C24.0292 15.0971 24.036 16.4618 23.7297 17.7727C23.4235 19.0837 22.8128 20.3042 21.9471 21.3353L26.9067 25.4993Z" fill="#EBEBFF"/>
</svg>
